<svg xmlns="http://www.w3.org/2000/svg" viewBox="0 0 200 200">
  <circle cx="100" cy="100" r="95" fill="#F4D03F" stroke="#8B4513" strokeWidth="3"/>
  <circle cx="100" cy="100" r="85" fill="none" stroke="#8B4513" strokeWidth="2"/>
  <path id="topCircle" d="M 30 100 A 70 70 0 0 1 170 100" fill="none"/>
  <text fontSize="12" fontWeight="bold" fill="#8B4513" fontFamily="serif">
    <textPath href="#topCircle" startOffset="50%" textAnchor="middle">
      HANDMADE WITH LOVE
    </textPath>
  </text>
  <text x="100" y="90" fontSize="18" fontWeight="bold" fill="#8B4513" textAnchor="middle" fontFamily="serif">
    EXOTIKA
  </text>
  <text x="100" y="110" fontSize="18" fontWeight="bold" fill="#8B4513" textAnchor="middle" fontFamily="serif">
    CREATION
  </text>
  <path d="M 40 100 Q 35 95 30 100 Q 35 105 40 100" fill="#8B4513"/>
  <path d="M 45 95 Q 40 90 35 95 Q 40 100 45 95" fill="#8B4513"/>
  <path d="M 45 105 Q 40 110 35 105 Q 40 100 45 105" fill="#8B4513"/>
  <path d="M 160 100 Q 165 95 170 100 Q 165 105 160 100" fill="#8B4513"/>
  <path d="M 155 95 Q 160 90 165 95 Q 160 100 155 95" fill="#8B4513"/>
  <path d="M 155 105 Q 160 110 165 105 Q 160 100 155 105" fill="#8B4513"/>
  <path d="M 60 130 Q 100 140 140 130" stroke="#8B4513" strokeWidth="2" fill="none"/>
</svg>
